<svg width="32" height="32" viewBox="0 0 32 32" fill="none" xmlns="http://www.w3.org/2000/svg">
<path d="M0 5C0 2.23858 2.23858 0 5 0H27C29.7614 0 32 2.23858 32 5V27C32 29.7614 29.7614 32 27 32H5C2.23858 32 0 29.7614 0 27V5Z" fill="#F05B3A"/>
<path d="M21.8333 9.33334H10.1667C9.50362 9.33334 8.86773 9.59674 8.39889 10.0656C7.93005 10.5344 7.66666 11.1703 7.66666 11.8333V20.1667C7.66666 20.8297 7.93005 21.4656 8.39889 21.9344C8.86773 22.4033 9.50362 22.6667 10.1667 22.6667H21.8333C22.4964 22.6667 23.1322 22.4033 23.6011 21.9344C24.0699 21.4656 24.3333 20.8297 24.3333 20.1667V11.8333C24.3333 11.1703 24.0699 10.5344 23.6011 10.0656C23.1322 9.59674 22.4964 9.33334 21.8333 9.33334V9.33334ZM10.1667 11H21.8333C22.0543 11 22.2663 11.0878 22.4226 11.2441C22.5789 11.4004 22.6667 11.6123 22.6667 11.8333L16 15.9L9.33332 11.8333C9.33332 11.6123 9.42112 11.4004 9.5774 11.2441C9.73368 11.0878 9.94564 11 10.1667 11V11ZM22.6667 20.1667C22.6667 20.3877 22.5789 20.5997 22.4226 20.7559C22.2663 20.9122 22.0543 21 21.8333 21H10.1667C9.94564 21 9.73368 20.9122 9.5774 20.7559C9.42112 20.5997 9.33332 20.3877 9.33332 20.1667V13.7333L15.5667 17.5417C15.6933 17.6148 15.837 17.6533 15.9833 17.6533C16.1296 17.6533 16.2733 17.6148 16.4 17.5417L22.6667 13.7333V20.1667Z" fill="white"/>
</svg>
