<svg width="32" height="32" viewBox="0 0 32 32" fill="none" xmlns="http://www.w3.org/2000/svg">
<path d="M27 3.05176e-05H5C2.23858 3.05176e-05 0 2.23861 0 5.00003V27C0 29.7615 2.23858 32 5 32H27C29.7614 32 32 29.7615 32 27V5.00003C32 2.23861 29.7614 3.05176e-05 27 3.05176e-05Z" fill="#F00073"/>
<path d="M16.0002 9.20003C18.2002 9.20003 18.5002 9.20003 19.4002 9.20003C20.2002 9.20003 20.6002 9.40003 20.9002 9.50003C21.3002 9.70003 21.6002 9.80003 21.9002 10.1C22.2002 10.4 22.4002 10.7 22.5002 11.1C22.6002 11.4 22.7002 11.8 22.8002 12.6C22.8002 13.5 22.8002 13.7 22.8002 16C22.8002 18.3 22.8002 18.5 22.8002 19.4C22.8002 20.2 22.6002 20.6 22.5002 20.9C22.3002 21.3 22.2002 21.6 21.9002 21.9C21.6002 22.2 21.3002 22.4 20.9002 22.5C20.6002 22.6 20.2002 22.7 19.4002 22.8C18.5002 22.8 18.3002 22.8 16.0002 22.8C13.7002 22.8 13.5002 22.8 12.6002 22.8C11.8002 22.8 11.4002 22.6 11.1002 22.5C10.7002 22.3 10.4002 22.2 10.1002 21.9C9.8002 21.6 9.6002 21.3 9.5002 20.9C9.4002 20.6 9.3002 20.2 9.2002 19.4C9.2002 18.5 9.2002 18.3 9.2002 16C9.2002 13.7 9.2002 13.5 9.2002 12.6C9.2002 11.8 9.4002 11.4 9.5002 11.1C9.7002 10.7 9.8002 10.4 10.1002 10.1C10.4002 9.80003 10.7002 9.60003 11.1002 9.50003C11.4002 9.40003 11.8002 9.30003 12.6002 9.20003C13.5002 9.20003 13.8002 9.20003 16.0002 9.20003ZM16.0002 7.70003C13.7002 7.70003 13.5002 7.70003 12.6002 7.70003C11.7002 7.70003 11.1002 7.90003 10.6002 8.10003C10.1002 8.30003 9.6002 8.60003 9.1002 9.10003C8.6002 9.60003 8.4002 10 8.1002 10.6C7.9002 11.1 7.8002 11.7 7.7002 12.6C7.7002 13.5 7.7002 13.8 7.7002 16C7.7002 18.3 7.7002 18.5 7.7002 19.4C7.7002 20.3 7.9002 20.9 8.1002 21.4C8.3002 21.9 8.6002 22.4 9.1002 22.9C9.6002 23.4 10.0002 23.6 10.6002 23.9C11.1002 24.1 11.7002 24.2 12.6002 24.3C13.5002 24.3 13.8002 24.3 16.0002 24.3C18.2002 24.3 18.5002 24.3 19.4002 24.3C20.3002 24.3 20.9002 24.1 21.4002 23.9C21.9002 23.7 22.4002 23.4 22.9002 22.9C23.4002 22.4 23.6002 22 23.9002 21.4C24.1002 20.9 24.2002 20.3 24.3002 19.4C24.3002 18.5 24.3002 18.2 24.3002 16C24.3002 13.8 24.3002 13.5 24.3002 12.6C24.3002 11.7 24.1002 11.1 23.9002 10.6C23.7002 10.1 23.4002 9.60003 22.9002 9.10003C22.4002 8.60003 22.0002 8.40003 21.4002 8.10003C20.9002 7.90003 20.3002 7.80003 19.4002 7.70003C18.5002 7.70003 18.3002 7.70003 16.0002 7.70003Z" fill="white"/>
<path d="M16.0002 11.7C13.6002 11.7 11.7002 13.6 11.7002 16C11.7002 18.4 13.6002 20.3 16.0002 20.3C18.4002 20.3 20.3002 18.4 20.3002 16C20.3002 13.6 18.4002 11.7 16.0002 11.7ZM16.0002 18.8C14.5002 18.8 13.2002 17.6 13.2002 16C13.2002 14.5 14.4002 13.2 16.0002 13.2C17.5002 13.2 18.8002 14.4 18.8002 16C18.8002 17.5 17.5002 18.8 16.0002 18.8Z" fill="white"/>
<path d="M20.4002 12.6C20.9525 12.6 21.4002 12.1523 21.4002 11.6C21.4002 11.0477 20.9525 10.6 20.4002 10.6C19.8479 10.6 19.4002 11.0477 19.4002 11.6C19.4002 12.1523 19.8479 12.6 20.4002 12.6Z" fill="white"/>
</svg>
